#!OML:ASF H:\ManfredETheater\Project 1\Capture day 1\Session 1\subject.ASF
:FULLY-SPECIFIED
:DEGREES
127
root 1.35539 16.0338 -3.70207 -5.94918 4.00527 0.0508938
lowerback 4.36067 -0.614292 -3.48903
upperback 0.309271 -0.957092 1.4776
thorax -2.04478 -0.441113 3.54053
lowerneck -19.1853 -1.90879 -2.50984
upperneck 23.2151 -2.01942 0.434834
head 10.6759 -1.09446 0.27887
rclavicle 6.29899e-015 1.66979e-014
rhumerus 25.8438 3.78443 -43.4404
rradius 69.3235
rwrist 9.52522
rhand 6.41587 -21.6049
rfingers 7.12502
rthumb 31.7195 -48.8667
lclavicle 6.29899e-015 1.66979e-014
lhumerus 25.5281 -1.79343 59.7818
lradius 74.6821
lwrist -23.4018
lhand 14.2256 16.2781
lfingers 7.12502
lthumb 39.1222 41.763
rfemur -15.6028 -15.966 8.09029
rtibia 64.004
rfoot -33.7879 0.926082
rtoes -12.571
lfemur -17.6758 5.20769 -10.3748
ltibia 63.9545
lfoot -34.8714 -3.34694
ltoes -13.3507
128
root 1.35509 16.0325 -3.70107 -5.93808 4.01461 0.0685821
lowerback 4.35266 -0.621133 -3.50113
upperback 0.292832 -0.96686 1.46959
thorax -2.05632 -0.445396 3.53968
lowerneck -19.1458 -1.90318 -2.50586
upperneck 23.2094 -2.01382 0.434338
head 10.6661 -1.09171 0.279207
rclavicle 1.09829e-014 1.33186e-014
rhumerus 25.8299 3.80658 -43.4529
rradius 69.3185
rwrist 9.53728
rhand 6.44521 -21.5949
rfingers 7.12502
rthumb 31.7475 -48.8511
lclavicle 1.09829e-014 1.33186e-014
lhumerus 25.5068 -1.79229 59.7778
lradius 74.6784
lwrist -23.405
lhand 14.2659 16.2606
lfingers 7.12502
lthumb 39.1602 41.7346
rfemur -15.6162 -15.9822 8.06543
rtibia 64.0204
rfoot -33.7965 0.946241
rtoes -12.5612
lfemur -17.6862 5.19727 -10.3965
ltibia 63.9618
lfoot -34.8879 -3.32493
ltoes -13.4027
129
root 1.35466 16.0326 -3.69936 -5.94549 3.99292 0.0546455
lowerback 4.34693 -0.615608 -3.47243
upperback 0.295803 -0.957936 1.46684
thorax -2.05133 -0.441361 3.51997
lowerneck -19.1443 -1.90657 -2.46935
upperneck 23.2175 -2.01878 0.39199
head 10.6679 -1.09605 0.257167
rclavicle -8.00108e-015 9.34288e-015
rhumerus 25.8207 3.81295 -43.4601
rradius 69.3169
rwrist 9.53405
rhand 6.44685 -21.5874
rfingers 7.12502
rthumb 31.749 -48.8433
lclavicle -8.00108e-015 9.34288e-015
lhumerus 25.4986 -1.79782 59.7552
lradius 74.6716
lwrist -23.3996
lhand 14.2557 16.25
lfingers 7.12502
lthumb 39.1506 41.7267
rfemur -15.6101 -15.9686 8.08456
rtibia 64.0246
rfoot -33.8039 0.944884
rtoes -12.5587
lfemur -17.6651 5.2085 -10.3748
ltibia 63.9619
lfoot -34.8954 -3.32953
ltoes -13.3654
130
root 1.35463 16.0315 -3.69908 -5.9373 4.00282 0.0942451
lowerback 4.36255 -0.6188 -3.50573
upperback 0.267271 -0.964768 1.45734
thorax -2.08854 -0.443236 3.52994
lowerneck -19.0895 -1.90555 -2.48166
upperneck 23.2223 -2.0162 0.395841
head 10.6594 -1.09568 0.261434
rclavicle 9.0944e-015 5.56597e-015
rhumerus 25.7836 3.85365 -43.4415
rradius 69.3393
rwrist 9.52446
rhand 6.487 -21.6023
rfingers 7.12502
rthumb 31.7872 -48.8506
lclavicle 9.0944e-015 5.56597e-015
lhumerus 25.4566 -1.81409 59.7658
lradius 74.6721
lwrist -23.4053
lhand 14.2599 16.2608
lfingers 7.12502
lthumb 39.1545 41.7363
rfemur -15.617 -15.9846 8.03166
rtibia 64.0416
rfoot -33.8131 0.96386
rtoes -12.5897
lfemur -17.6708 5.19143 -10.4257
ltibia 63.967
lfoot -34.9 -3.29509
ltoes -13.4316
131
root 1.35372 16.0313 -3.69829 -5.94367 3.98346 0.0420533
lowerback 4.36223 -0.622502 -3.45831
upperback 0.266548 -0.966909 1.47788
thorax -2.08934 -0.444635 3.52456
lowerneck -19.0839 -1.89627 -2.47159
upperneck 23.2317 -1.99976 0.370808
head 10.6612 -1.09045 0.253206
rclavicle -6.08778e-015 -7.95139e-016
rhumerus 25.8 3.87065 -43.4547
rradius 69.3288
rwrist 9.55343
rhand 6.47302 -21.5816
rfingers 7.12502
rthumb 31.7739 -48.8326
lclavicle -6.08778e-015 -7.95139e-016
lhumerus 25.4313 -1.80177 59.7602
lradius 74.6769
lwrist -23.4115
lhand 14.2399 16.2831
lfingers 7.12502
lthumb 39.1357 41.7641
rfemur -15.623 -15.9664 8.1049
rtibia 64.0493
rfoot -33.8048 0.939079
rtoes -12.5807
lfemur -17.668 5.20583 -10.3535
ltibia 63.9712
lfoot -34.8964 -3.33034
ltoes -13.325
132
root 1.35434 16.0301 -3.69703 -5.95212 3.98199 0.0569247
lowerback 4.37314 -0.618779 -3.45815
upperback 0.257486 -0.962489 1.47163
thorax -2.10529 -0.441961 3.51804
lowerneck -19.0483 -1.89562 -2.45646
upperneck 23.2127 -1.99836 0.347758
head 10.6469 -1.09138 0.242986
rclavicle 1.31198e-014 9.93923e-016
rhumerus 25.7742 3.87766 -43.46
rradius 69.3433
rwrist 9.55424
rhand 6.50815 -21.5882
rfingers 7.12502
rthumb 31.8074 -48.8326
lclavicle 1.31198e-014 9.93923e-016
lhumerus 25.4277 -1.82623 59.7527
lradius 74.6702
lwrist -23.4008
lhand 14.2328 16.2671
lfingers 7.12502
lthumb 39.129 41.7501
rfemur -15.6164 -15.9803 8.0746
rtibia 64.067
rfoot -33.8185 0.951996
rtoes -12.612
lfemur -17.6497 5.19691 -10.3732
ltibia 63.9757
lfoot -34.9098 -3.30818
ltoes -13.347
133
root 1.35444 16.0294 -3.69572 -5.95519 3.98553 0.0948359
lowerback 4.37029 -0.618588 -3.4852
upperback 0.260186 -0.963725 1.45973
thorax -2.10057 -0.442519 3.52097
lowerneck -19.0654 -1.89692 -2.47739
upperneck 23.2335 -1.99859 0.367753
head 10.6583 -1.09088 0.253401
rclavicle -1.49337e-014 3.57812e-015
rhumerus 25.7725 3.87593 -43.465
rradius 69.3481
rwrist 9.55088
rhand 6.49749 -21.5951
rfingers 7.12502
rthumb 31.7972 -48.8415
lclavicle -1.49337e-014 3.57812e-015
lhumerus 25.4098 -1.82978 59.7484
lradius 74.681
lwrist -23.4254
lhand 14.262 16.2715
lfingers 7.12502
lthumb 39.1566 41.7465
rfemur -15.605 -15.9908 8.02321
rtibia 64.0816
rfoot -33.8264 0.958578
rtoes -12.6347
lfemur -17.6368 5.18161 -10.4219
ltibia 63.9781
lfoot -34.9167 -3.26403
ltoes -13.4091
134
root 1.35424 16.0284 -3.69515 -5.95664 3.96989 0.102991
lowerback 4.37252 -0.615775 -3.48474
upperback 0.252463 -0.96019 1.45496
thorax -2.11017 -0.440443 3.51569
lowerneck -19.0297 -1.89384 -2.45494
upperneck 23.2221 -1.99667 0.346729
head 10.6468 -1.09069 0.242738
rclavicle 1.28962e-014 -2.78299e-015
rhumerus 25.7731 3.87872 -43.4945
rradius 69.3591
rwrist 9.56106
rhand 6.5126 -21.6088
rfingers 7.12502
rthumb 31.8116 -48.8523
lclavicle 1.28962e-014 -2.78299e-015
lhumerus 25.3999 -1.83787 59.7406
lradius 74.6783
lwrist -23.4286
lhand 14.2473 16.2584
lfingers 7.12502
lthumb 39.1427 41.7374
rfemur -15.6182 -15.9812 8.01918
rtibia 64.0971
rfoot -33.8261 0.943856
rtoes -12.6614
lfemur -17.6321 5.19007 -10.4247
ltibia 63.9841
lfoot -34.9224 -3.30093
ltoes -13.3367
135
root 1.3538 16.028 -3.69441 -5.95245 3.97055 0.0894327
lowerback 4.36755 -0.619471 -3.46915
upperback 0.25218 -0.964041 1.46176
thorax -2.10748 -0.44254 3.51407
lowerneck -19.029 -1.89159 -2.44469
upperneck 23.2203 -1.99235 0.330457
head 10.6456 -1.08983 0.235837
rclavicle -7.83957e-015 -1.51076e-014
rhumerus 25.7801 3.87944 -43.4968
rradius 69.3541
rwrist 9.5423
rhand 6.50789 -21.5794
rfingers 7.12502
rthumb 31.8071 -48.8238
lclavicle -7.83957e-015 -1.51076e-014
lhumerus 25.4107 -1.83266 59.7404
lradius 74.6749
lwrist -23.4162
lhand 14.288 16.2792
lfingers 7.12502
lthumb 39.181 41.7472
rfemur -15.6239 -15.9752 8.04054
rtibia 64.1072
rfoot -33.834 0.933687
rtoes -12.6708
lfemur -17.6399 5.17748 -10.4093
ltibia 63.9875
lfoot -34.9271 -3.30758
ltoes -13.3051
136
root 1.35375 16.027 -3.6933 -5.96404 3.97964 0.107911
lowerback 4.36945 -0.622027 -3.48196
upperback 0.256664 -0.968288 1.45371
thorax -2.10349 -0.444732 3.51319
lowerneck -19.0326 -1.89221 -2.45341
upperneck 23.2265 -1.99467 0.346218
head 10.6489 -1.08971 0.242555
rclavicle 4.88265e-015 -7.35503e-015
rhumerus 25.7675 3.87668 -43.4981
rradius 69.3689
rwrist 9.51251
rhand 6.47629 -21.5821
rfingers 7.12502
rthumb 31.777 -48.8325
lclavicle 4.88265e-015 -7.35503e-015
lhumerus 25.406 -1.83865 59.7385
lradius 74.6907
lwrist -23.4008
lhand 14.2739 16.2757
lfingers 7.12502
lthumb 39.1678 41.7475
rfemur -15.6041 -15.9846 8.00953
rtibia 64.1163
rfoot -33.8499 0.945581
rtoes -12.6595
lfemur -17.6219 5.15404 -10.4345
ltibia 63.9929
lfoot -34.944 -3.27397
ltoes -13.3036
137
root 1.35394 16.0264 -3.69216 -5.95636 3.97711 0.137097
lowerback 4.35013 -0.624366 -3.49701
upperback 0.257404 -0.971732 1.44435
thorax -2.09151 -0.446621 3.51185
lowerneck -19.0631 -1.89016 -2.45141
upperneck 23.2635 -1.9893 0.337427
head 10.6681 -1.08822 0.239468
rclavicle 1.78906e-015 1.25234e-014
rhumerus 25.7676 3.87001 -43.5247
rradius 69.3763
rwrist 9.50271
rhand 6.50047 -21.5986
rfingers 7.12502
rthumb 31.8001 -48.8444
lclavicle 1.78906e-015 1.25234e-014
lhumerus 25.4069 -1.83474 59.7343
lradius 74.6838
lwrist -23.3869
lhand 14.2634 16.2612
lfingers 7.12502
lthumb 39.1578 41.7358
rfemur -15.6097 -15.9882 7.9743
rtibia 64.1245
rfoot -33.8696 0.944742
rtoes -12.6288
lfemur -17.6181 5.15485 -10.4697
ltibia 63.9921
lfoot -34.9499 -3.22906
ltoes -13.3844
